<svg width="9" height="9" viewBox="0 0 9 9" fill="none" xmlns="http://www.w3.org/2000/svg">
<path fill-rule="evenodd" clip-rule="evenodd" d="M4.22308 0.249425C4.23779 0.107691 4.35724 0 4.49973 0C4.64223 0 4.76168 0.107691 4.77639 0.249425L4.99625 2.36736C5.08593 3.23125 5.76875 3.91407 6.63264 4.00375L8.75058 4.22361C8.89231 4.23832 9 4.35777 9 4.50027C9 4.64276 8.89231 4.76221 8.75058 4.77692L6.63264 4.99678C5.76875 5.08646 5.08593 5.76928 4.99625 6.63317L4.77639 8.75111C4.76168 8.89284 4.64223 9.00053 4.49973 9.00053C4.35724 9.00053 4.23779 8.89284 4.22308 8.75111L4.00322 6.63317C3.91354 5.76929 3.23072 5.08646 2.36683 4.99678L0.248893 4.77692C0.107159 4.76221 -0.00053215 4.64276 -0.00053215 4.50027C-0.00053215 4.35777 0.107158 4.23832 0.248893 4.22361L2.36683 4.00375C3.23072 3.91407 3.91354 3.23125 4.00322 2.36736L4.22308 0.249425Z" fill="#10CA99"/>
</svg>
