<svg width="11" height="11" viewBox="0 0 11 11" fill="none" xmlns="http://www.w3.org/2000/svg">
<path fill-rule="evenodd" clip-rule="evenodd" d="M5.84203 0.434082C6.00273 0.434082 6.13744 0.555988 6.15404 0.716432L6.40198 3.11394C6.50312 4.09186 7.27317 4.86482 8.24743 4.96634L10.6359 5.21522C10.7958 5.23187 10.9172 5.36709 10.9172 5.5284C10.9172 5.6897 10.7958 5.82492 10.6359 5.84157L8.24743 6.09045C7.27317 6.19197 6.50312 6.96493 6.40198 7.94285L6.15404 10.3404C6.13744 10.5008 6.00273 10.6227 5.84203 10.6227C5.68133 10.6227 5.54663 10.5008 5.53003 10.3404L5.28209 7.94285C5.18095 6.96493 4.41089 6.19197 3.43664 6.09045L1.04814 5.84157C0.888294 5.82492 0.766846 5.6897 0.766846 5.5284C0.766846 5.36709 0.888294 5.23187 1.04814 5.21522L3.43664 4.96634C4.4109 4.86482 5.18095 4.09186 5.28209 3.11394L5.53003 0.716432C5.54663 0.555988 5.68133 0.434082 5.84203 0.434082ZM5.84203 3.54846C5.60279 4.52365 4.84106 5.28825 3.86954 5.5284C4.84106 5.76854 5.60279 6.53314 5.84203 7.50833C6.08128 6.53314 6.84301 5.76854 7.81453 5.5284C6.84301 5.28825 6.08128 4.52365 5.84203 3.54846Z" fill="white"/>
</svg>
